<?xml version="1.0" encoding="utf-8"?>
<!-- Generator: Adobe Illustrator 28.1.0, SVG Export Plug-In . SVG Version: 6.00 Build 0)  -->
<svg version="1.1" id="Livello_1" xmlns="http://www.w3.org/2000/svg" xmlns:xlink="http://www.w3.org/1999/xlink" x="0px" y="0px"
	 viewBox="0 0 1067.3 130" style="enable-background:new 0 0 1067.3 130;" xml:space="preserve">
<style type="text/css">
	.st0{fill:#211E18;}
</style>
<g>
	<g>
		<path class="st0" d="M726.1,40.4c-3.2-7.5-7.7-14.2-13.5-20c-5.8-5.8-12.5-10.3-20-13.5c-7.8-3.3-16-4.9-24.4-4.9
			c-4.7,0-9.3,0.5-13.8,1.5c-3.6,0.8-7.2,2-10.6,3.4c-7.5,3.2-14.2,7.7-20,13.5c-5.8,5.8-10.3,12.5-13.5,20
			c-3.3,7.7-4.9,16-4.9,24.4c0,9,3.5,17.5,9.9,23.8c6.4,6.4,14.8,9.9,23.8,9.9c2.1,0,4.2-0.2,6.2-0.6c-2-1.4-3.8-2.9-5.6-4.7
			c-7.6-7.6-11.8-17.7-11.8-28.5s4.2-20.9,11.8-28.5c3.7-3.7,7.9-6.5,12.6-8.6c5-2.1,10.3-3.2,15.8-3.2c10.8,0,20.8,4.2,28.5,11.8
			c7.6,7.6,11.8,17.7,11.8,28.5c0,9.4-1.8,18.4-5.5,27c-3.5,8.3-8.5,15.7-14.8,22c-5.7,5.7-12.3,10.3-19.6,13.8
			c8.3,0,16.4-1.7,24.1-4.9c7.5-3.2,14.2-7.7,20-13.5c5.8-5.8,10.3-12.5,13.5-20c3.3-7.7,4.9-16,4.9-24.4S729.3,48.1,726.1,40.4
			L726.1,40.4z"/>
		<path class="st0" d="M702.7,64.9c0-9.2-3.6-17.9-10.1-24.4s-15.2-10.1-24.4-10.1c-2.8,0-5.6,0.3-8.3,1c2.6,1.6,4.9,3.5,7.1,5.6
			c7.4,7.4,11.5,17.3,11.5,27.9s-4.1,20.4-11.5,27.9c-3.6,3.6-7.7,6.4-12.4,8.4c-4.9,2.1-10.1,3.2-15.5,3.2
			c-10.5,0-20.4-4.1-27.9-11.5c-7.4-7.4-11.5-17.3-11.5-27.8c0-9.3,1.8-18.2,5.4-26.7c3.5-8.2,8.4-15.5,14.7-21.8
			c6.3-6.3,13.6-11.2,21.8-14.7c0.3-0.1,0.6-0.3,1-0.4c-1.1-0.1-2.3-0.1-3.4-0.1c-8.6,0-16.9,1.7-24.8,5
			c-7.6,3.2-14.4,7.8-20.2,13.6c-5.8,5.8-10.4,12.6-13.6,20.2c-3.3,7.9-5,16.2-5,24.8s1.7,16.9,5,24.8c3.2,7.6,7.8,14.4,13.6,20.2
			c5.8,5.8,12.6,10.4,20.2,13.6c7.8,3.3,16.2,5,24.8,5c4.7,0,9.5-0.5,14-1.5c3.7-0.8,7.3-2,10.8-3.5c7.6-3.2,14.4-7.8,20.2-13.6
			c5.8-5.8,10.4-12.6,13.6-20.2C701.1,81.8,702.7,73.4,702.7,64.9L702.7,64.9z"/>
	</g>
	<path class="st0" d="M78.1,71.8c-3.3-3-7.1-5.7-11.2-8.2c-4.1-2.5-8.4-4.9-12.7-7.1c-4.3-2.3-8.5-4.5-12.7-6.7
		c-4.1-2.2-7.8-4.5-11-6.8s-5.8-4.7-7.6-7.4c-2.1-3-2.9-8-2.9-11c0-2.1,0.6-4.6,1.5-6.6s2.3-3.9,4.1-5.6s4.2-3,6.9-4
		c2.8-1,6.1-1.5,9.8-1.5c4.2,0,8.1,0.6,11.4,1.7c3.3,1.1,6.3,2.8,8.9,4.9c2.6,2.1,4.8,4.7,6.6,7.7c0.9,1.5,1.7,3,2.4,4.6
		c1.4,3,2.2,6.3,2.5,9.6l0,0l12.2-5.6L86.1,29c-1.5-4.7-3.5-8.8-5.9-12.4s-5.5-6.6-9-9.1s-7.6-4.3-12.3-5.6C54.3,0.7,49,0,43.2,0
		c-6.5,0-12.3,0.9-17.3,2.5c-5,1.7-9.3,4.1-12.8,7c-3.5,3-6.1,6.6-7.9,10.7s-2.7,8.6-2.7,13.4s1,9.1,3,12.8c2,3.7,4.6,7,7.8,10
		s6.8,5.6,10.9,8c4,2.4,8.2,4.6,12.3,6.8c4.2,2.1,8.3,4.3,12.3,6.4s7.5,4.4,10.6,6.8c3,2.4,5.6,4.9,7.4,7.8c2.7,4.6,3.1,9,3.1,12.6
		c0,3-1,5.5-2.3,7.7s-3.1,4.2-5.4,5.7c-2.2,1.6-4.8,2.8-7.6,3.5c-6.6,1.9-13.7,1.5-19.7-0.5c-3.4-1.1-6.6-2.8-9.4-4.9
		c-2.8-2.1-5.3-4.7-7.4-7.8c-1-1.4-1.9-3-2.7-4.6c-1.5-3.1-2.4-6.4-2.7-9.9l0,0L0,99.2l0.3,0.8c1.6,4.6,3.7,8.8,6.3,12.3
		c2.6,3.6,5.7,6.7,9.3,9.2s7.8,4.4,12.5,5.8c4.7,1.3,10,2,16,2c7.3,0,13.8-1,19.4-2.8c5.6-1.9,10.3-4.5,14-7.7
		c3.8-3.2,6.6-7.1,8.5-11.5s2.8-9.1,2.8-14c0-4.4-1-8.5-3.1-12.1C84.1,78.1,81.4,74.8,78.1,71.8L78.1,71.8z"/>
	<polygon class="st0" points="180.9,67.9 135.4,3.3 135.1,2.9 111.8,2.9 161.5,75.4 161.5,126.8 184.9,126.8 184.9,73.4 232,2.9 
		224.2,2.9 	"/>
	<polygon class="st0" points="333.6,98.4 283.3,3.4 283.1,2.9 259.6,2.9 259.6,126.8 265.9,126.8 265.9,21.6 321.1,126.8 
		326.4,126.8 375.7,28.5 375.7,126.8 399.2,126.8 399.2,2.9 381.2,2.9 	"/>
	<path class="st0" d="M537.3,72.1c-2.5-2.6-5.7-4.8-9.2-6.5c-2.9-1.4-6.2-2.5-9.8-3.2c3.5-1.8,6.5-3.5,8.9-5.2
		c2.9-2,5.3-4.2,7.1-6.5c1.8-2.3,3-4.9,3.8-7.7c0.7-2.7,1-5.8,1-9.2c0-4.6-1.1-8.8-3.3-12.6c-2.2-3.8-5.4-7.1-9.3-9.8
		c-4-2.7-8.8-4.8-14.3-6.2C506.7,3.7,500.6,3,494,3h-51.1v123.9h59c6.6,0,12.6-0.9,17.9-2.6c5.3-1.7,10-4.2,13.7-7.2
		c3.8-3,6.8-6.7,8.8-10.8c2-4.1,3.1-8.6,3.1-13.4c0-4.1-0.7-8-2.1-11.5C541.9,77.8,539.9,74.7,537.3,72.1L537.3,72.1z M514.7,46.5
		c-1.1,2.7-2.7,5.1-4.8,7c-2.1,2-4.7,3.5-7.8,4.6s-6.7,1.7-10.6,1.7h-25.2v-47h16c6,0,11.3,0.5,15.6,1.6c4.2,1.1,7.8,2.6,10.5,4.6
		s4.7,4.4,6,7.1c1.3,2.8,1.9,5.9,1.9,9.3C516.3,38.8,515.8,43.8,514.7,46.5L514.7,46.5z M466.3,66.2h20.6c6.4,0,11.9,0.7,16.3,2.1
		c4.4,1.4,7.9,3.2,10.6,5.6c2.7,2.3,4.6,5.1,5.8,8.2c1.2,3.2,1.8,7.7,1.8,11.5c0,3.3-0.7,6.3-2,9.1c-1.3,2.7-3.3,5.1-6.1,7.1
		c-2.8,2-6.3,3.5-10.5,4.6c-4.3,1.1-9.4,1.7-15.3,1.7h-21.3L466.3,66.2L466.3,66.2z"/>
	<polygon class="st0" points="790.5,2.9 767.1,2.9 767.1,126.8 852,126.8 852,120.5 790.5,120.5 	"/>
	<rect x="884.4" y="2.9" class="st0" width="23.4" height="123.9"/>
	<path class="st0" d="M1058,90.5c-1.1,3-2.3,5.7-3.8,8.2c-1.2,2-2.6,3.9-4.2,5.9c-2.7,3.3-5.7,6.3-9,8.9s-7,4.7-10.9,6.4
		c-3.9,1.6-7.9,2.4-12.1,2.4c-7,0-13.6-1.2-19.6-3.7c-6-2.4-11.2-6-15.7-10.5s-7.9-10.3-10.4-16.9s-3.8-17.4-3.8-25.7
		s1.3-19.2,3.8-25.9c2.6-6.7,6.1-12.5,10.6-17.1c4.5-4.7,9.8-8.3,15.8-10.8s12.5-3.8,19.4-3.8c8,0,15.1,2.2,21.3,6.7
		c5.3,3.8,10.9,9.2,14.6,17.3c1.2,2.6,1.9,5.1,2.7,8.1l10.6-7l-0.5-0.8c-2.5-4.1-5.6-8.2-9.2-12s-7.7-7.2-12.2-10.1
		c-4.6-2.9-9.7-5.3-15.2-7c-5.6-1.8-11.7-2.7-18.3-2.7s-13.4,0.8-19.5,2.4s-11.7,3.8-16.8,6.7c-5.1,2.9-9.8,6.4-13.8,10.4
		c-4.1,4-7.6,8.5-10.4,13.3s-5,10-6.5,15.5s-2.2,11.2-2.2,17c0,8.7,1.7,17,4.9,24.8s7.9,14.7,13.9,20.5s13.2,10.5,21.5,13.9
		s17.7,5.1,27.9,5.1c7.1,0,13.5-0.9,19.3-2.6c5.7-1.7,11-4.1,15.5-7.1c4.6-2.9,8.6-6.4,12.1-10.2c3.5-3.8,6.5-7.8,9-12l0.5-0.8
		L1058,90.5L1058,90.5z"/>
</g>
</svg>
