<?xml version="1.0" encoding="utf-8"?>
<!-- Generator: Adobe Illustrator 28.1.0, SVG Export Plug-In . SVG Version: 6.00 Build 0)  -->
<svg version="1.1" id="Livello_1" xmlns="http://www.w3.org/2000/svg" xmlns:xlink="http://www.w3.org/1999/xlink" x="0px" y="0px"
	 viewBox="0 0 327.3 267.8" style="enable-background:new 0 0 327.3 267.8;" xml:space="preserve">
<style type="text/css">
	.st0{fill:#211E18;}
</style>
<g>
	<path class="st0" d="M317,82.3c-6.7-15.7-16.2-29.9-28.3-42s-26.3-21.7-42-28.3c-16.3-6.9-33.6-10.4-51.5-10.4
		c-9.9,0-19.6,1.1-29.1,3.2c-7.6,1.7-15.1,4.1-22.4,7.2c-15.7,6.6-29.9,16.2-42,28.3S80,66.6,73.4,82.3C66.5,98.6,63,115.9,63,133.7
		c0,19,7.4,36.8,20.8,50.2c13.4,13.4,31.2,20.8,50.1,20.8c4.4,0,8.8-0.4,13.1-1.2c-4.2-2.9-8.1-6.2-11.7-9.8
		c-16-16-24.8-37.3-24.8-59.9s8.8-43.9,24.8-59.9c7.7-7.7,16.6-13.8,26.6-18c10.5-4.5,21.8-6.8,33.3-6.8c22.6,0,43.9,8.8,59.9,24.8
		s24.8,37.3,24.8,59.9c0,19.7-3.9,38.8-11.5,56.8c-7.4,17.4-17.9,33-31.3,46.4c-12,12-25.9,21.8-41.2,29
		c17.5-0.1,34.5-3.6,50.7-10.4c15.7-6.7,29.9-16.2,42-28.3c12.1-12.1,21.7-26.3,28.3-42c6.9-16.3,10.4-33.6,10.4-51.5
		S323.9,98.6,317,82.3L317,82.3z"/>
	<path class="st0" d="M267.9,133.8c0-19.4-7.6-37.7-21.3-51.4c-13.7-13.7-32-21.3-51.4-21.3c-6,0-11.8,0.7-17.5,2.1
		c5.4,3.4,10.4,7.3,14.9,11.9c15.7,15.7,24.3,36.5,24.3,58.7s-8.6,43-24.3,58.7c-7.5,7.5-16.3,13.5-26,17.6
		c-10.3,4.4-21.3,6.7-32.7,6.7c-22.2,0-43-8.6-58.7-24.3c-15.7-15.7-24.3-36.5-24.3-58.6c0-19.5,3.8-38.4,11.4-56.2
		C69.6,60.5,80,45.1,93.2,31.9S121.8,8.3,139,1c0.7-0.3,1.4-0.6,2-0.8c-2.4-0.1-4.8-0.2-7.1-0.2c-18.1,0-35.6,3.5-52.1,10.5
		c-15.9,6.8-30.3,16.4-42.6,28.7C26.9,51.5,17.3,65.8,10.5,81.8C3.5,98.3,0,115.9,0,133.9s3.5,35.6,10.5,52.1
		c6.8,16,16.4,30.3,28.7,42.6c12.3,12.3,26.6,22,42.6,28.7c16.5,7,34.1,10.5,52.1,10.5c10,0,19.9-1.1,29.5-3.2
		c7.7-1.7,15.3-4.2,22.6-7.3c16-6.8,30.3-16.4,42.6-28.7s21.9-26.6,28.7-42.6C264.3,169.4,267.9,151.9,267.9,133.8L267.9,133.8z"/>
</g>
</svg>
